# xmcd
#
# Track frame offsets: 
#        150
#        19267
#        39095
#        61130
#        81777
#        103080
#        133965
#        152297
#        167620
#        186567
#        205175
#        223622
#        241612
#
# Disc length: 3628 seconds
#
# Revision: 18
# Processed by: cddbd v1.5.2PL0 Copyright (c) Steve Scherf et al.
# Submitted via: ExactAudioCopyFreeDBPlugin 1.0
#
DISCID=a60e2a0d
DTITLE=CHRIS REA - New Light Through Old Windows -- The Best Of
DYEAR=1988
DGENRE=Rock
TTITLE0=Let's dance  (1987)
TTITLE1=Working on it  (1988)
TTITLE2=Ace of hearts  (1984)
TTITLE3=Josephine  (1985)
TTITLE4=Candles  (1983)
TTITLE5=On the beach  (1986)
TTITLE6=Fool (If you think it's over)  (1978)
TTITLE7=I can hear your heartbeat  (1983)
TTITLE8=Shamrock diaries  (1985)
TTITLE9=Stainsby girls  (1985)
TTITLE10=Windy town  (1987)
TTITLE11=Driving home for Christmas  (1988)
TTITLE12=Steel river  (1985)
EXTD=YEAR: 1988
EXTT0=
EXTT1=
EXTT2=
EXTT3=
EXTT4=
EXTT5=
EXTT6=
EXTT7=
EXTT8=
EXTT9=
EXTT10=
EXTT11=
EXTT12=
PLAYORDER=
